# xmcd
#
# Track frame offsets:
#	150
#	18053
#	37054
#	55868
#	77354
#	96030
#	113926
#	131017
#	148494
#	161397
#	182079
#
# Disc length: 2757 seconds
#
# Revision: 1
# Processed by: cddbd v1.5.2PL0 Copyright (c) Steve Scherf et al.
# Submitted via: EasyCDDAExtractor 15.2.5.1
#
DISCID=8c0ac30b
DTITLE=Keke Wyatt - Unbelievable
DYEAR=2011
DGENRE=Soul
TTITLE0=Light Me Up
TTITLE1=Unbelievable
TTITLE2=Mirror (with Kelly Price and Tweet)
TTITLE3=Love Under New Manaqgement
TTITLE4=Tap Out
TTITLE5=Saturday Love (with Ruben Studdard)
TTITLE6=Miss Your Plane
TTITLE7=Enough
TTITLE8=Travel The World (Love Uses Time)
TTITLE9=Tears In  Heaven
TTITLE10=His Eye Is On The Sparrow
EXTD=
EXTT0=
EXTT1=
EXTT2=
EXTT3=
EXTT4=
EXTT5=
EXTT6=
EXTT7=
EXTT8=
EXTT9=
EXTT10=
PLAYORDER=
